<svg width="513" height="512" viewBox="0 0 513 512" fill="none" xmlns="http://www.w3.org/2000/svg">
<path d="M512 0H0V512H512V0Z" fill="#FF1E00"/>
<path fill-rule="evenodd" clip-rule="evenodd" d="M264.966 287.014H266.258V281.033H266.281L268.429 287.014H269.548L271.695 281.033H271.718V287.014H273.01V279.264H271.121L269.037 285.331H269.014L266.877 279.264H264.966V287.014ZM257.816 280.436H260.268V287.014H261.624V280.436H264.088V279.264H257.816V280.436ZM242.047 287.014L304.063 225H266.738L204.725 287.014H242.05H242.047ZM233.156 252.007H158.082C135.203 252.007 131.198 253.221 121.398 263.02C112.232 272.184 97.3444 287.016 97.3444 287.016H129.865L137.624 279.256C142.726 274.156 145.355 273.627 156.065 273.627H211.535L233.154 252.006H233.156V252.007ZM120.397 258.597C113.629 264.985 98.9004 279.289 90.9621 287.014H56C56 287.014 84.0148 259.081 99.5867 243.754C115.63 228.484 123.626 225.001 153.052 225.001H260.166L236.974 248.192H155.229C134.553 248.192 129.908 249.624 120.399 258.597H120.397Z" fill="white"/>
<path d="M349.079 286.2V238.464H325.823V225H388.655V238.464H365.399V286.2H349.079Z" fill="white"/>
<path d="M408.427 225L422.299 269.961C422.517 270.56 422.734 271.049 422.952 271.43C423.17 271.757 423.523 271.92 424.013 271.92C424.557 271.92 424.938 271.757 425.155 271.43C425.427 271.104 425.672 270.587 425.89 269.88L439.843 225H456L440.822 272.736C439.408 277.142 437.45 280.624 434.947 283.181C432.445 285.737 428.909 287.016 424.339 287.016C419.389 287.016 415.663 285.819 413.16 283.425C410.712 281.032 408.727 277.469 407.203 272.736L391.536 225H408.427Z" fill="white"/>
</svg>
